<svg width="1477" height="451" viewBox="0 0 1477 451" fill="none" xmlns="http://www.w3.org/2000/svg">
<path d="M183.498 56.2199C182.716 56.2199 182.044 56.0733 181.482 55.7801C180.92 55.4746 180.456 55.0409 180.089 54.4788C179.723 53.9168 179.454 53.2264 179.283 52.4078C179.112 51.5892 179.026 50.6545 179.026 49.6037C179.026 48.5651 179.112 47.6365 179.283 46.8179C179.454 45.9871 179.723 45.2906 180.089 44.7286C180.456 44.1665 180.92 43.7389 181.482 43.4456C182.044 43.1402 182.716 42.9874 183.498 42.9874C184.28 42.9874 184.952 43.1402 185.514 43.4456C186.076 43.7389 186.541 44.1665 186.907 44.7286C187.274 45.2906 187.543 45.9871 187.714 46.8179C187.885 47.6365 187.97 48.5651 187.97 49.6037C187.97 50.6545 187.885 51.5892 187.714 52.4078C187.543 53.2264 187.274 53.9168 186.907 54.4788C186.541 55.0409 186.076 55.4746 185.514 55.7801C184.952 56.0733 184.28 56.2199 183.498 56.2199ZM183.498 54.882C184.011 54.882 184.451 54.7843 184.818 54.5888C185.184 54.3811 185.478 54.0939 185.698 53.7274C185.93 53.3608 186.101 52.921 186.211 52.4078C186.321 51.8824 186.376 51.2959 186.376 50.6484V48.559C186.376 47.9237 186.321 47.3433 186.211 46.8179C186.101 46.2925 185.93 45.8465 185.698 45.48C185.478 45.1134 185.184 44.8324 184.818 44.6369C184.451 44.4292 184.011 44.3254 183.498 44.3254C182.985 44.3254 182.545 44.4292 182.179 44.6369C181.812 44.8324 181.513 45.1134 181.281 45.48C181.061 45.8465 180.896 46.2925 180.786 46.8179C180.676 47.3433 180.621 47.9237 180.621 48.559V50.6484C180.621 51.2959 180.676 51.8824 180.786 52.4078C180.896 52.921 181.061 53.3608 181.281 53.7274C181.513 54.0939 181.812 54.3811 182.179 54.5888C182.545 54.7843 182.985 54.882 183.498 54.882ZM183.498 50.685C183.071 50.685 182.771 50.5995 182.6 50.4284C182.441 50.2574 182.362 50.0497 182.362 49.8053V49.4021C182.362 49.1577 182.441 48.95 182.6 48.7789C182.771 48.6079 183.071 48.5224 183.498 48.5224C183.926 48.5224 184.219 48.6079 184.378 48.7789C184.549 48.95 184.635 49.1577 184.635 49.4021V49.8053C184.635 50.0497 184.549 50.2574 184.378 50.4284C184.219 50.5995 183.926 50.685 183.498 50.685ZM190.547 56V54.6621H194.213V44.3437H194.084L190.859 47.3494L189.961 46.378L193.351 43.2074H195.752V54.6621H199.124V56H190.547Z" fill="#9D9D9D"/>
<path d="M1249.5 429.22C1248.72 429.22 1248.04 429.073 1247.48 428.78C1246.92 428.475 1246.46 428.041 1246.09 427.479C1245.72 426.917 1245.45 426.226 1245.28 425.408C1245.11 424.589 1245.03 423.654 1245.03 422.604C1245.03 421.565 1245.11 420.637 1245.28 419.818C1245.45 418.987 1245.72 418.291 1246.09 417.729C1246.46 417.167 1246.92 416.739 1247.48 416.446C1248.04 416.14 1248.72 415.987 1249.5 415.987C1250.28 415.987 1250.95 416.14 1251.51 416.446C1252.08 416.739 1252.54 417.167 1252.91 417.729C1253.27 418.291 1253.54 418.987 1253.71 419.818C1253.88 420.637 1253.97 421.565 1253.97 422.604C1253.97 423.654 1253.88 424.589 1253.71 425.408C1253.54 426.226 1253.27 426.917 1252.91 427.479C1252.54 428.041 1252.08 428.475 1251.51 428.78C1250.95 429.073 1250.28 429.22 1249.5 429.22ZM1249.5 427.882C1250.01 427.882 1250.45 427.784 1250.82 427.589C1251.18 427.381 1251.48 427.094 1251.7 426.727C1251.93 426.361 1252.1 425.921 1252.21 425.408C1252.32 424.882 1252.38 424.296 1252.38 423.648V421.559C1252.38 420.924 1252.32 420.343 1252.21 419.818C1252.1 419.293 1251.93 418.847 1251.7 418.48C1251.48 418.113 1251.18 417.832 1250.82 417.637C1250.45 417.429 1250.01 417.325 1249.5 417.325C1248.99 417.325 1248.55 417.429 1248.18 417.637C1247.81 417.832 1247.51 418.113 1247.28 418.48C1247.06 418.847 1246.9 419.293 1246.79 419.818C1246.68 420.343 1246.62 420.924 1246.62 421.559V423.648C1246.62 424.296 1246.68 424.882 1246.79 425.408C1246.9 425.921 1247.06 426.361 1247.28 426.727C1247.51 427.094 1247.81 427.381 1248.18 427.589C1248.55 427.784 1248.99 427.882 1249.5 427.882ZM1249.5 423.685C1249.07 423.685 1248.77 423.599 1248.6 423.428C1248.44 423.257 1248.36 423.05 1248.36 422.805V422.402C1248.36 422.158 1248.44 421.95 1248.6 421.779C1248.77 421.608 1249.07 421.522 1249.5 421.522C1249.93 421.522 1250.22 421.608 1250.38 421.779C1250.55 421.95 1250.63 422.158 1250.63 422.402V422.805C1250.63 423.05 1250.55 423.257 1250.38 423.428C1250.22 423.599 1249.93 423.685 1249.5 423.685ZM1264.83 429H1256.29V427.424L1260.56 423.575C1261.18 423.013 1261.7 422.439 1262.1 421.852C1262.5 421.254 1262.71 420.624 1262.71 419.965V419.745C1262.71 418.975 1262.5 418.382 1262.1 417.967C1261.7 417.539 1261.1 417.325 1260.3 417.325C1259.52 417.325 1258.92 417.527 1258.49 417.93C1258.07 418.321 1257.76 418.847 1257.56 419.506L1256.18 418.993C1256.3 418.614 1256.47 418.248 1256.68 417.894C1256.9 417.527 1257.17 417.203 1257.5 416.922C1257.83 416.641 1258.23 416.415 1258.69 416.244C1259.17 416.073 1259.72 415.987 1260.34 415.987C1260.98 415.987 1261.54 416.079 1262.03 416.262C1262.53 416.446 1262.94 416.702 1263.27 417.032C1263.62 417.362 1263.87 417.753 1264.04 418.205C1264.23 418.657 1264.32 419.152 1264.32 419.69C1264.32 420.178 1264.24 420.637 1264.1 421.064C1263.96 421.492 1263.77 421.901 1263.51 422.292C1263.27 422.683 1262.97 423.068 1262.61 423.447C1262.27 423.813 1261.89 424.18 1261.46 424.546L1257.89 427.662H1264.83V429Z" fill="#9D9D9D"/>
<path d="M69.8018 272.864V269.033H66.1363V267.787H69.8018V263.957H71.1947V267.787H74.8602V269.033H71.1947V272.864H69.8018Z" fill="#9D9D9D"/>
<path d="M1255.8 368.864V365.033H1252.14V363.787H1255.8V359.957H1257.19V363.787H1260.86V365.033H1257.19V368.864H1255.8Z" fill="#9D9D9D"/>
<rect x="1435.5" y="161.5" width="41" height="16" rx="8" stroke="#9D9D9D"/>
<rect x="1316.5" y="339.5" width="111" height="15" rx="7.5" transform="rotate(90 1316.5 339.5)" stroke="#9D9D9D"/>
<rect x="207.5" y="399.5" width="50" height="12" rx="6" transform="rotate(-180 207.5 399.5)" stroke="#9D9D9D"/>
<rect x="1435.5" y="242.5" width="41" height="18" rx="9" stroke="#9D9D9D"/>
<rect x="0.5" y="434.5" width="41" height="12" rx="6" stroke="#9D9D9D"/>
<rect x="0.5" y="117.5" width="41" height="16" rx="8" stroke="#9D9D9D"/>
<rect x="1297.5" y="34.5" width="23" height="16" rx="8" fill="#9D9D9D" stroke="#9D9D9D"/>
<rect x="1443.5" y="383.5" width="23" height="16" rx="8" fill="#9D9D9D" stroke="#9D9D9D"/>
<rect x="9.5" y="0.5" width="23" height="16" rx="8" fill="#9D9D9D" stroke="#9D9D9D"/>
</svg>
