<svg width="381" height="612" viewBox="0 0 381 612" fill="none" xmlns="http://www.w3.org/2000/svg">
<mask id="path-1-inside-1_1104_171" fill="white">
<path fill-rule="evenodd" clip-rule="evenodd" d="M0 17C0 7.61113 7.61116 0 17 0H333.402C342.79 0 350.402 7.61116 350.402 17V34.6282H374C377.866 34.6282 381 37.7622 381 41.6282V605C381 608.866 377.866 612 374 612H172.824C168.958 612 165.824 608.866 165.824 605V582.715L99.4445 556.171H17C7.61117 556.171 0 548.56 0 539.171V17Z"/>
</mask>
<path fill-rule="evenodd" clip-rule="evenodd" d="M0 17C0 7.61113 7.61116 0 17 0H333.402C342.79 0 350.402 7.61116 350.402 17V34.6282H374C377.866 34.6282 381 37.7622 381 41.6282V605C381 608.866 377.866 612 374 612H172.824C168.958 612 165.824 608.866 165.824 605V582.715L99.4445 556.171H17C7.61117 556.171 0 548.56 0 539.171V17Z" fill="#FCD603"/>
<path d="M350.402 34.6282H349.402V35.6282H350.402V34.6282ZM165.824 582.715H166.824V582.038L166.195 581.787L165.824 582.715ZM99.4445 556.171L99.8157 555.242L99.637 555.171H99.4445V556.171ZM17 -1C7.05888 -1 -1 7.05885 -1 17H1C1 8.16342 8.16344 1 17 1V-1ZM333.402 -1H17V1H333.402V-1ZM351.402 17C351.402 7.05887 343.343 -1 333.402 -1V1C342.238 1 349.402 8.16345 349.402 17H351.402ZM351.402 34.6282V17H349.402V34.6282H351.402ZM374 33.6282H350.402V35.6282H374V33.6282ZM382 41.6282C382 37.2099 378.418 33.6282 374 33.6282V35.6282C377.314 35.6282 380 38.3145 380 41.6282H382ZM382 605V41.6282H380V605H382ZM374 613C378.418 613 382 609.418 382 605H380C380 608.314 377.314 611 374 611V613ZM172.824 613H374V611H172.824V613ZM164.824 605C164.824 609.418 168.406 613 172.824 613V611C169.51 611 166.824 608.314 166.824 605H164.824ZM164.824 582.715V605H166.824V582.715H164.824ZM166.195 581.787L99.8157 555.242L99.0732 557.099L165.453 583.644L166.195 581.787ZM17 557.171H99.4445V555.171H17V557.171ZM-1 539.171C-1 549.112 7.05889 557.171 17 557.171V555.171C8.16345 555.171 1 548.007 1 539.171H-1ZM-1 17V539.171H1V17H-1Z" fill="#9D9D9D" mask="url(#path-1-inside-1_1104_171)"/>
<rect x="224.252" y="581.765" width="133.24" height="8.25911" rx="4.12955" fill="#333333"/>
<rect x="331.978" y="542.947" width="20.7891" height="13.2146" rx="6.60729" fill="#333333"/>
<rect x="331.978" y="522.3" width="20.7891" height="13.2146" rx="6.60729" fill="#333333"/>
<rect x="331.978" y="500" width="20.7891" height="14.0405" rx="7.02024" fill="#333333"/>
</svg>
