<svg width="633" height="527" viewBox="0 0 633 527" fill="none" xmlns="http://www.w3.org/2000/svg">
<mask id="path-1-inside-1_538_145" fill="white">
<path fill-rule="evenodd" clip-rule="evenodd" d="M0 17C0 7.61117 7.61116 0 17 0H529C538.389 0 546 7.61116 546 17V146H626C629.866 146 633 149.134 633 153V520C633 523.866 629.866 527 626 527H328C324.134 527 321 523.866 321 520V500.587L284.239 479H17C7.61117 479 0 471.389 0 462V17Z"/>
</mask>
<path fill-rule="evenodd" clip-rule="evenodd" d="M0 17C0 7.61117 7.61116 0 17 0H529C538.389 0 546 7.61116 546 17V146H626C629.866 146 633 149.134 633 153V520C633 523.866 629.866 527 626 527H328C324.134 527 321 523.866 321 520V500.587L284.239 479H17C7.61117 479 0 471.389 0 462V17Z" fill="#FCD603"/>
<path d="M546 146H545V147H546V146ZM321 500.587H322V500.014L321.506 499.725L321 500.587ZM284.239 479L284.746 478.138L284.511 478H284.239V479ZM17 -1C7.05887 -1 -1 7.05889 -1 17H1C1 8.16346 8.16345 1 17 1V-1ZM529 -1H17V1H529V-1ZM547 17C547 7.05888 538.941 -1 529 -1V1C537.837 1 545 8.16344 545 17H547ZM547 146V17H545V146H547ZM626 145H546V147H626V145ZM634 153C634 148.582 630.418 145 626 145V147C629.314 147 632 149.686 632 153H634ZM634 520V153H632V520H634ZM626 528C630.418 528 634 524.418 634 520H632C632 523.314 629.314 526 626 526V528ZM328 528H626V526H328V528ZM320 520C320 524.418 323.582 528 328 528V526C324.686 526 322 523.314 322 520H320ZM320 500.587V520H322V500.587H320ZM321.506 499.725L284.746 478.138L283.733 479.862L320.494 501.449L321.506 499.725ZM17 480H284.239V478H17V480ZM-1 462C-1 471.941 7.05889 480 17 480V478C8.16346 478 1 470.837 1 462H-1ZM-1 17V462H1V17H-1Z" fill="#9D9D9D" mask="url(#path-1-inside-1_538_145)"/>
<rect x="581" y="469" width="26" height="19" rx="9.5" fill="#333333"/>
<rect x="581" y="440" width="26" height="19" rx="9.5" fill="#333333"/>
<rect x="581" y="409" width="26" height="19" rx="9.5" fill="#333333"/>
<rect x="389" y="473" width="165" height="12" rx="6" fill="#333333"/>
</svg>
