<svg width="137" height="30" viewBox="0 0 137 30" fill="none" xmlns="http://www.w3.org/2000/svg">
<path d="M0.669678 29V1.91684H9.7232C12.87 1.91684 15.4623 2.4843 17.5 3.61921C19.5634 4.72834 21.0853 6.30174 22.0654 8.33943C23.0714 10.3513 23.5743 12.7243 23.5743 15.4584C23.5743 18.1926 23.0714 20.5785 22.0654 22.6161C21.0853 24.628 19.5763 26.2014 17.5386 27.3364C15.501 28.4455 12.8958 29 9.7232 29H0.669678ZM5.89287 24.512H9.45237C11.6706 24.512 13.4117 24.1509 14.6756 23.4286C15.9652 22.7064 16.8809 21.6747 17.4226 20.3334C17.9642 18.9664 18.2351 17.3414 18.2351 15.4584C18.2351 13.5497 17.9642 11.9247 17.4226 10.5835C16.8809 9.21641 15.9652 8.17177 14.6756 7.44955C13.4117 6.72733 11.6706 6.36622 9.45237 6.36622H5.89287V24.512Z" fill="#333333"/>
<path d="M26.6708 29V9.50014H31.8939V29H26.6708ZM29.3017 6.83051C28.3731 6.83051 27.5993 6.55968 26.9803 6.01801C26.387 5.45055 26.0904 4.74123 26.0904 3.89005C26.0904 3.03886 26.387 2.34243 26.9803 1.80077C27.5993 1.23331 28.3731 0.949585 29.3017 0.949585C30.2561 0.949585 31.0299 1.23331 31.6231 1.80077C32.2422 2.34243 32.5517 3.03886 32.5517 3.89005C32.5517 4.74123 32.2422 5.45055 31.6231 6.01801C31.0299 6.55968 30.2561 6.83051 29.3017 6.83051Z" fill="#333333"/>
<path d="M35.8177 29V9.50014H40.4218L40.8087 12.6727C41.402 11.5894 42.2403 10.7124 43.3236 10.0418C44.4327 9.37117 45.7482 9.03585 47.27 9.03585C48.895 9.03585 50.2621 9.37117 51.3712 10.0418C52.4803 10.7124 53.3186 11.6926 53.886 12.9823C54.4793 14.2719 54.7759 15.8582 54.7759 17.7412V29H49.5914V18.2441C49.5914 16.6965 49.2561 15.51 48.5855 14.6846C47.9406 13.8592 46.9347 13.4465 45.5676 13.4465C44.6907 13.4465 43.904 13.6529 43.2075 14.0656C42.5369 14.4783 42.0081 15.0715 41.6212 15.8453C41.2343 16.5934 41.0409 17.509 41.0409 18.5924V29H35.8177Z" fill="#333333"/>
<path d="M64.92 29.4643C63.295 29.4643 61.9538 29.2064 60.8962 28.6905C59.8387 28.1489 59.052 27.4395 58.5361 26.5626C58.0461 25.6598 57.801 24.6667 57.801 23.5834C57.801 22.3969 58.0976 21.3523 58.6909 20.4495C59.3099 19.5467 60.2256 18.8374 61.4379 18.3215C62.676 17.8057 64.2236 17.5477 66.0807 17.5477H70.917C70.917 16.5934 70.7881 15.8067 70.5301 15.1876C70.2722 14.5428 69.8724 14.0656 69.3307 13.7561C68.7891 13.4465 68.0668 13.2918 67.1641 13.2918C66.1839 13.2918 65.3456 13.511 64.6492 13.9495C63.9786 14.3622 63.5659 15.0071 63.4111 15.884H58.3427C58.4716 14.4912 58.923 13.2918 59.6968 12.2858C60.4964 11.2541 61.5411 10.4545 62.8308 9.88704C64.1462 9.31958 65.6036 9.03585 67.2028 9.03585C69.0341 9.03585 70.6204 9.34538 71.9617 9.96442C73.3029 10.5835 74.3347 11.4733 75.0569 12.6341C75.7791 13.7948 76.1402 15.2263 76.1402 16.9287V29H71.7295L71.1492 26.0209C70.8654 26.5368 70.5301 27.001 70.1432 27.4137C69.7563 27.8264 69.3049 28.1875 68.7891 28.4971C68.2732 28.8066 67.6928 29.0387 67.048 29.1935C66.4032 29.374 65.6938 29.4643 64.92 29.4643ZM66.1581 25.4405C66.8288 25.4405 67.422 25.3245 67.9379 25.0923C68.4795 24.8344 68.9438 24.4991 69.3307 24.0864C69.7176 23.6479 70.0142 23.1578 70.2206 22.6161C70.4527 22.0487 70.6075 21.4425 70.6849 20.7977V20.759H66.6998C65.9002 20.759 65.2424 20.8622 64.7266 21.0685C64.2365 21.2491 63.8754 21.5199 63.6432 21.881C63.4111 22.2421 63.295 22.6548 63.295 23.1191C63.295 23.635 63.4111 24.0606 63.6432 24.3959C63.8754 24.7312 64.2107 24.9891 64.6492 25.1697C65.0877 25.3503 65.5907 25.4405 66.1581 25.4405Z" fill="#333333"/>
<path d="M89.099 29.4643C87.1387 29.4643 85.3977 29.0258 83.8758 28.1489C82.354 27.2719 81.1675 26.0725 80.3163 24.5507C79.4652 23.0288 79.0396 21.2878 79.0396 19.3275C79.0396 17.3156 79.4652 15.5487 80.3163 14.0269C81.1675 12.4793 82.354 11.267 83.8758 10.39C85.3977 9.48724 87.1387 9.03585 89.099 9.03585C91.601 9.03585 93.7032 9.69359 95.4055 11.0091C97.1079 12.3245 98.1912 14.1301 98.6555 16.4257H93.1228C92.8907 15.5229 92.4006 14.8136 91.6526 14.2977C90.9304 13.7819 90.0663 13.5239 89.0603 13.5239C88.1576 13.5239 87.3451 13.7561 86.6229 14.2204C85.9264 14.6588 85.3719 15.3166 84.9592 16.1936C84.5723 17.0447 84.3788 18.0636 84.3788 19.2501C84.3788 20.1529 84.4949 20.9654 84.727 21.6876C84.9592 22.384 85.2816 22.9901 85.6943 23.506C86.107 23.9961 86.5971 24.3701 87.1645 24.628C87.7578 24.886 88.3897 25.0149 89.0603 25.0149C89.731 25.0149 90.3371 24.8989 90.8788 24.6667C91.4462 24.4346 91.9234 24.1122 92.3103 23.6995C92.6972 23.261 92.9681 22.7322 93.1228 22.1132H98.6555C98.1912 24.3572 97.095 26.1499 95.3669 27.4911C93.6645 28.8066 91.5752 29.4643 89.099 29.4643Z" fill="#333333"/>
<path d="M109.08 29.4643C107.506 29.4643 106.152 29.1419 105.017 28.4971C103.908 27.8264 103.057 26.8592 102.464 25.5953C101.87 24.3056 101.574 22.7193 101.574 20.8364V9.50014H106.797V20.2947C106.797 21.8681 107.119 23.0546 107.764 23.8542C108.435 24.6538 109.454 25.0536 110.821 25.0536C111.698 25.0536 112.471 24.8602 113.142 24.4733C113.813 24.0606 114.341 23.4802 114.728 22.7322C115.141 21.9584 115.347 21.0169 115.347 19.9078V9.50014H120.532V29H115.966L115.541 25.8274C114.973 26.9366 114.135 27.8264 113.026 28.4971C111.917 29.1419 110.601 29.4643 109.08 29.4643Z" fill="#333333"/>
<path d="M133.076 29C131.709 29 130.509 28.7937 129.477 28.381C128.472 27.9425 127.685 27.2332 127.117 26.253C126.55 25.2471 126.266 23.88 126.266 22.1519V13.8721H122.939V9.50014H126.266L126.847 4.19957H131.489V9.50014H136.635V13.8721H131.489V22.2292C131.489 23.1062 131.683 23.7124 132.07 24.0477C132.457 24.383 133.114 24.5507 134.043 24.5507H136.596V29H133.076Z" fill="#333333"/>
</svg>
